<!DOCTYPE svg PUBLIC "-//W3C//DTD SVG 1.1//EN" "http://www.w3.org/Graphics/SVG/1.1/DTD/svg11.dtd">
<!-- Uploaded to: SVG Repo, www.svgrepo.com, Transformed by: SVG Repo Mixer Tools -->
<svg width="800px" height="800px" viewBox="-1.6 -1.6 19.20 19.20" xmlns="http://www.w3.org/2000/svg" fill="#000000">
<g id="SVGRepo_bgCarrier" stroke-width="0">
<rect x="-1.6" y="-1.6" width="19.20" height="19.20" rx="0" fill="#e4570c" strokewidth="0"/>
</g>
<g id="SVGRepo_tracerCarrier" stroke-linecap="round" stroke-linejoin="round"/>
<g id="SVGRepo_iconCarrier">
<path d="M6 3h4v1H6V3zm0 6h4v1H6V9zm0 2h4v1H6v-1zm9.14 5H.86l1.25-5H4V2a.95.95 0 0 1 .078-.383c.052-.12.123-.226.211-.32a.922.922 0 0 1 .32-.219A1.01 1.01 0 0 1 5 1h6a.95.95 0 0 1 .383.078c.12.052.226.123.32.211a.922.922 0 0 1 .219.32c.052.125.078.256.078.391v9h1.89l1.25 5zM5 13h6V2H5v11zm8.86 2l-.75-3H12v2H4v-2H2.89l-.75 3h11.72z"/>
</g>
</svg>