<?xml version="1.0" standalone="no"?>
<!DOCTYPE svg PUBLIC "-//W3C//DTD SVG 20010904//EN"
 "http://www.w3.org/TR/2001/REC-SVG-20010904/DTD/svg10.dtd">
<svg version="1.0" xmlns="http://www.w3.org/2000/svg"
 width="259.000000pt" height="194.000000pt" viewBox="0 0 259.000000 194.000000"
 preserveAspectRatio="xMidYMid meet">

<g transform="translate(0.000000,194.000000) scale(0.100000,-0.100000)"
fill="#000000" stroke="none">
<path d="M1575 1856 c-87 -24 -198 -66 -260 -100 -37 -20 -51 -20 -59 -1 -4
11 -24 -4 -75 -57 -38 -40 -68 -74 -67 -75 2 -2 27 4 57 12 30 8 71 20 92 26
30 8 37 14 32 28 -10 34 205 119 371 147 161 28 273 -1 351 -90 50 -57 73
-133 73 -242 -1 -314 -260 -728 -645 -1029 -331 -258 -610 -372 -812 -329
-156 32 -217 115 -214 294 1 136 64 315 166 477 36 56 36 57 8 31 -16 -16 -32
-28 -36 -28 -4 0 -4 19 -1 42 4 24 4 40 1 37 -19 -17 -103 -231 -132 -334 -42
-153 -48 -208 -35 -292 21 -127 104 -238 207 -275 61 -21 251 -15 351 11 150
39 234 87 472 265 370 277 624 605 706 911 70 265 1 472 -186 558 -56 26 -79
31 -170 34 -88 3 -120 -1 -195 -21z"/>
<path d="M670 1690 c-42 -42 -10 -120 49 -120 35 0 71 37 71 73 0 36 -33 67
-70 67 -17 0 -39 -9 -50 -20z"/>
<path d="M1511 1509 c-71 -14 -137 -65 -174 -134 -17 -32 -22 -57 -22 -125 0
-75 3 -91 28 -132 56 -96 181 -146 299 -119 61 13 127 56 148 96 13 25 13 29
-9 46 -13 10 -26 19 -30 18 -3 0 -20 -19 -36 -42 -38 -52 -86 -71 -141 -55
-79 21 -119 99 -112 218 6 90 30 138 85 162 60 26 98 17 149 -38 l40 -43 30
25 29 24 -48 44 c-64 60 -132 76 -236 55z"/>
<path d="M650 1255 l0 -255 70 0 70 0 0 255 0 255 -70 0 -70 0 0 -255z"/>
<path d="M860 1475 l0 -35 70 0 70 0 0 -220 0 -220 65 0 65 0 0 220 0 220 70
0 70 0 0 35 0 35 -205 0 -205 0 0 -35z"/>
<path d="M595 290 c14 -15 21 -17 32 -9 7 6 13 14 13 16 0 3 -7 0 -15 -7 -9
-7 -15 -8 -15 -2 0 5 -8 13 -17 16 -15 6 -15 4 2 -14z"/>
<path d="M668 253 c7 -3 16 -2 19 1 4 3 -2 6 -13 5 -11 0 -14 -3 -6 -6z"/>
</g>
</svg>
