<?xml version="1.0" standalone="no"?>
<!DOCTYPE svg PUBLIC "-//W3C//DTD SVG 20010904//EN"
 "http://www.w3.org/TR/2001/REC-SVG-20010904/DTD/svg10.dtd">
<svg version="1.0" xmlns="http://www.w3.org/2000/svg"
 width="924.000000pt" height="326.000000pt" viewBox="0 0 924.000000 326.000000"
 preserveAspectRatio="xMidYMid meet">

<g transform="translate(0.000000,326.000000) scale(0.100000,-0.100000)"
fill="#000000" stroke="none">
<path d="M2725 2774 c-11 -2 -45 -9 -75 -15 -141 -28 -275 -126 -335 -244 -28
-56 -30 -68 -30 -170 0 -95 3 -116 23 -154 69 -131 177 -206 442 -306 228 -87
326 -149 371 -237 67 -132 3 -285 -140 -333 -81 -27 -198 -18 -281 22 -80 37
-186 122 -305 242 -49 50 -93 91 -97 91 -5 0 -8 -72 -8 -160 l0 -160 38 -18
c20 -11 69 -31 107 -45 313 -117 596 -110 785 18 75 51 111 92 148 173 24 51
27 68 27 172 0 110 -2 119 -32 180 -73 148 -168 218 -448 330 -235 94 -339
160 -371 237 -47 111 20 235 148 277 154 49 315 -20 540 -233 58 -56 109 -101
112 -101 3 0 6 70 6 155 l0 156 -44 18 c-90 39 -234 82 -321 96 -83 14 -213
18 -260 9z"/>
<path d="M6565 2770 c-149 -27 -279 -104 -345 -202 -55 -83 -73 -151 -68 -252
5 -102 36 -163 123 -244 73 -68 162 -117 334 -182 180 -68 278 -120 333 -177
96 -98 104 -232 21 -324 -54 -60 -104 -82 -199 -87 -155 -8 -267 52 -475 255
-64 62 -119 113 -122 113 -4 0 -7 -72 -7 -160 l0 -160 38 -19 c59 -30 233 -88
319 -107 105 -22 296 -22 387 0 156 37 275 125 332 243 37 77 46 231 18 315
-55 167 -180 267 -478 382 -174 68 -269 120 -321 178 -158 176 49 406 301 333
105 -30 208 -100 360 -247 50 -49 94 -88 98 -88 3 0 5 71 4 157 l-3 157 -83
33 c-141 57 -263 84 -397 88 -66 2 -142 0 -170 -5z"/>
<path d="M484 2738 c3 -13 15 -66 26 -118 20 -91 21 -120 17 -660 -3 -545 -4
-568 -25 -640 -12 -41 -22 -78 -22 -82 0 -5 295 -8 655 -8 l655 0 0 181 0 182
-113 -109 c-75 -73 -132 -119 -172 -139 l-60 -30 -315 0 -315 0 0 620 c0 607
1 622 23 712 12 51 22 97 22 103 0 6 -69 10 -191 10 l-191 0 6 -22z"/>
<path d="M1325 2749 c-33 -5 -100 -19 -150 -31 l-90 -23 -3 -112 c-1 -62 1
-113 6 -113 4 0 31 19 59 43 176 150 305 204 363 152 40 -36 52 -74 58 -182
l5 -104 -39 8 c-21 4 -93 8 -159 8 -108 0 -126 -3 -175 -26 -31 -14 -73 -41
-94 -59 -134 -118 -103 -347 58 -433 34 -18 58 -22 141 -22 116 0 166 18 233
85 l38 39 13 -35 c46 -128 267 -122 314 9 6 15 2 18 -21 17 -89 -6 -92 5 -92
318 0 205 -3 257 -17 297 -21 63 -85 127 -149 149 -58 21 -212 29 -299 15z
m223 -425 c21 -6 22 -10 22 -143 0 -137 0 -137 -27 -163 -99 -94 -254 -45
-284 88 -28 125 64 223 211 223 30 1 65 -2 78 -5z"/>
<path d="M3593 2746 c3 -8 15 -59 27 -113 20 -95 21 -119 17 -673 -3 -555 -4
-578 -25 -650 -12 -41 -22 -76 -22 -77 0 -2 88 -3 196 -3 194 0 195 0 189 21
-31 98 -45 215 -45 392 l0 187 178 0 c145 0 193 4 256 20 138 35 244 105 309
202 47 71 67 144 67 244 0 231 -141 399 -378 449 -98 21 -777 22 -769 1z m668
-103 c133 -60 208 -237 180 -424 -22 -137 -80 -227 -177 -275 -49 -24 -69 -27
-194 -32 l-140 -5 0 383 0 382 143 -4 c116 -3 150 -8 188 -25z"/>
<path d="M4884 2733 c48 -222 46 -187 46 -738 0 -551 2 -516 -46 -737 l-6 -28
536 0 536 0 0 160 c0 102 -4 160 -10 160 -6 0 -54 -39 -108 -86 -55 -48 -125
-99 -162 -117 l-64 -32 -198 -3 -198 -4 2 334 3 333 75 3 c134 5 297 -27 463
-93 16 -7 17 3 17 124 0 101 -3 131 -13 131 -7 0 -51 -14 -98 -31 -116 -42
-211 -59 -340 -59 l-109 0 0 310 0 310 190 0 c251 0 285 -13 455 -170 41 -39
77 -70 80 -70 3 0 5 74 5 165 l0 165 -531 0 -531 0 6 -27z"/>
<path d="M7831 2699 c10 -33 19 -78 19 -100 0 -25 -60 -204 -171 -511 -191
-530 -244 -668 -300 -780 l-39 -78 140 0 c105 0 140 3 140 13 0 6 -7 35 -16
62 -10 30 -17 87 -17 145 -1 84 3 107 34 195 l34 100 285 3 285 2 50 -132 c45
-121 50 -141 50 -218 0 -47 -3 -104 -8 -127 l-7 -43 225 0 226 0 -26 43 c-48
77 -94 186 -220 521 -69 182 -178 473 -244 646 l-119 315 -170 3 -170 2 19
-61z m233 -519 c69 -184 124 -336 122 -337 -2 -2 -113 -2 -248 -1 l-246 3 121
337 c67 186 122 336 123 335 1 -1 59 -153 128 -337z"/>
<path d="M945 716 c-54 -23 -85 -70 -85 -128 0 -66 27 -111 80 -132 70 -28
131 -15 180 39 21 22 25 36 25 90 0 54 -4 68 -25 90 -47 52 -115 67 -175 41z
m119 -77 c33 -39 33 -69 0 -108 -62 -74 -171 -1 -134 89 25 60 92 69 134 19z"/>
<path d="M1335 711 c-102 -47 -105 -199 -5 -252 98 -53 220 18 220 126 0 52
-32 103 -80 127 -45 23 -85 22 -135 -1z m121 -65 c37 -31 38 -84 4 -121 -51
-54 -140 -16 -140 60 0 74 80 110 136 61z"/>
<path d="M2737 598 c-32 -73 -57 -136 -57 -140 0 -5 13 -8 29 -8 22 0 31 6 41
30 12 28 15 30 70 30 55 0 59 -1 69 -30 8 -24 16 -30 40 -30 17 0 31 3 31 7 0
4 -25 67 -56 140 -53 124 -58 133 -84 133 -25 0 -31 -9 -83 -132z m101 9 c16
-46 16 -47 -18 -47 -16 0 -30 3 -30 7 0 14 24 73 30 73 3 0 11 -15 18 -33z"/>
<path d="M5376 709 c-20 -15 -26 -29 -26 -57 0 -51 8 -59 76 -85 44 -17 59
-28 59 -43 0 -26 -35 -30 -81 -8 -35 17 -37 17 -50 -1 -20 -27 -18 -31 20 -49
40 -19 104 -21 140 -5 32 15 48 59 35 98 -11 30 -30 43 -94 63 -44 14 -58 43
-26 53 11 3 35 -1 55 -9 33 -14 35 -13 50 9 15 23 15 25 -13 40 -44 22 -113
19 -145 -6z"/>
<path d="M5690 591 l0 -141 30 0 c28 0 30 2 30 40 0 35 3 40 24 40 83 0 136
39 136 101 0 26 -8 47 -24 66 -23 26 -31 28 -110 32 l-86 3 0 -141z m150 64
c10 -12 10 -21 2 -40 -10 -21 -19 -25 -52 -25 l-40 0 0 40 c0 40 0 40 39 40
22 0 44 -6 51 -15z"/>
<path d="M6040 590 l0 -140 105 0 105 0 0 25 c0 24 -2 25 -75 25 l-75 0 0 30
0 30 65 0 65 0 0 30 0 30 -65 0 c-62 0 -65 1 -65 25 0 23 3 24 73 27 70 3 72
4 75 31 l3 27 -105 0 -106 0 0 -140z"/>
<path d="M6434 711 c-86 -52 -83 -200 5 -246 43 -22 119 -19 160 6 l34 20 -21
22 c-21 20 -21 20 -56 2 -47 -25 -84 -13 -111 38 l-20 37 20 37 c26 47 63 61
107 39 29 -15 33 -15 50 0 25 23 23 31 -12 49 -41 21 -118 19 -156 -4z"/>
<path d="M6750 590 l0 -140 30 0 30 0 0 140 0 140 -30 0 -30 0 0 -140z"/>
<path d="M7003 608 c-73 -173 -70 -158 -34 -158 27 0 34 5 42 30 11 29 13 30
71 30 57 0 60 -1 71 -30 10 -25 17 -30 45 -30 19 0 32 4 30 9 -1 6 -28 68 -58
140 -53 127 -56 131 -85 131 -30 0 -32 -4 -82 -122z m85 -36 c-17 -2 -32 -1
-34 1 -3 3 3 21 13 42 l18 37 16 -39 16 -38 -29 -3z"/>
<path d="M7350 590 l0 -140 100 0 100 0 0 30 0 30 -70 0 -70 0 0 110 0 110
-30 0 -30 0 0 -140z"/>
<path d="M7620 700 c0 -29 2 -30 45 -30 l45 0 0 -110 0 -110 30 0 30 0 0 110
0 110 40 0 c38 0 40 2 40 30 l0 30 -115 0 -115 0 0 -30z"/>
<path d="M7980 590 l0 -140 30 0 30 0 0 140 0 140 -30 0 -30 0 0 -140z"/>
<path d="M8190 590 l0 -140 105 0 c105 0 105 0 105 25 0 23 -3 24 -72 27 -71
3 -73 4 -76 31 l-3 27 65 0 66 0 0 30 0 30 -65 0 c-63 0 -65 1 -65 25 0 24 2
25 75 25 l75 0 0 30 0 30 -105 0 -105 0 0 -140z"/>
<path d="M8556 707 c-53 -53 -26 -118 59 -143 61 -17 73 -28 55 -49 -16 -19
-43 -19 -82 1 -29 15 -32 15 -51 -4 l-20 -21 34 -20 c50 -31 132 -29 164 4 30
29 33 74 8 104 -10 12 -43 29 -73 39 -56 17 -69 36 -38 56 13 8 26 6 52 -7 34
-16 36 -16 51 6 22 32 -1 50 -74 55 -54 4 -62 2 -85 -21z"/>
<path d="M540 585 l0 -135 30 0 c29 0 30 1 30 50 l0 50 65 0 65 0 0 30 0 30
-65 0 -65 0 0 30 0 30 75 0 c73 0 75 1 75 25 l0 25 -105 0 -105 0 0 -135z"/>
<path d="M1690 585 l0 -135 78 0 c59 0 85 5 109 20 84 51 84 179 0 230 -24 15
-50 20 -109 20 l-78 0 0 -135z m154 63 c15 -13 29 -37 32 -55 9 -45 -38 -93
-90 -93 l-36 0 0 85 0 85 34 0 c22 0 45 -8 60 -22z"/>
<path d="M2270 585 l0 -135 30 0 30 0 0 80 c0 44 3 80 8 80 4 0 22 -23 40 -51
l34 -52 39 59 39 59 0 -87 0 -88 30 0 30 0 0 135 0 135 -34 0 c-31 0 -38 -6
-69 -56 l-34 -57 -34 56 c-31 52 -37 56 -71 57 l-38 0 0 -135z"/>
<path d="M3090 585 l0 -135 30 0 c28 0 30 2 30 40 0 36 3 40 25 40 18 0 32
-11 51 -40 22 -34 32 -40 60 -40 19 0 34 2 34 5 0 3 -12 23 -26 45 l-27 40 27
26 c35 36 36 95 1 129 -22 23 -32 25 -115 25 l-90 0 0 -135z m154 69 c35 -34
11 -64 -51 -64 l-43 0 0 40 c0 40 0 40 39 40 23 0 46 -7 55 -16z"/>
<path d="M3460 585 l0 -135 30 0 c28 0 30 2 30 38 0 24 7 45 18 55 16 14 20
12 56 -39 36 -49 43 -54 78 -54 l38 0 -55 73 c-30 41 -55 78 -55 83 0 4 23 32
52 61 l52 53 -39 0 c-35 0 -45 -6 -92 -57 l-52 -58 -1 58 c0 57 0 57 -30 57
l-30 0 0 -135z"/>
<path d="M3830 585 l0 -135 105 0 105 0 0 25 c0 24 -2 25 -75 25 l-75 0 0 30
0 30 65 0 c62 0 65 1 65 25 0 23 -4 24 -62 27 -60 3 -63 4 -66 31 l-3 27 75 0
c74 0 76 1 76 25 l0 25 -105 0 -105 0 0 -135z"/>
<path d="M4160 695 c0 -22 4 -25 40 -25 l40 0 0 -110 0 -110 30 0 29 0 3 108
3 107 43 3 c37 3 42 6 42 28 l0 24 -115 0 -115 0 0 -25z"/>
<path d="M4820 670 l0 -50 -50 0 -50 0 0 -35 0 -35 50 0 50 0 0 -50 0 -50 40
0 40 0 0 50 0 50 50 0 50 0 0 34 c0 34 -1 35 -47 38 l-48 3 -3 48 -3 47 -40 0
-39 0 0 -50z"/>
</g>
</svg>
