<?xml version="1.0" standalone="no"?>
<!DOCTYPE svg PUBLIC "-//W3C//DTD SVG 20010904//EN"
 "http://www.w3.org/TR/2001/REC-SVG-20010904/DTD/svg10.dtd">
<svg version="1.0" xmlns="http://www.w3.org/2000/svg"
 width="366.000000pt" height="138.000000pt" viewBox="0 0 366.000000 138.000000"
 preserveAspectRatio="xMidYMid meet">

<g transform="translate(0.000000,138.000000) scale(0.100000,-0.100000)"
fill="#000000" stroke="none">
<path d="M210 1366 c-67 -15 -106 -35 -142 -73 -36 -37 -48 -73 -48 -139 0
-102 58 -173 202 -245 103 -51 138 -82 138 -124 0 -101 -133 -121 -291 -43
l-66 33 20 -77 19 -78 52 -15 c28 -9 87 -19 131 -22 235 -17 385 123 331 309
-20 70 -57 104 -186 173 -113 60 -140 84 -140 122 0 81 89 103 208 51 24 -10
46 -18 48 -18 3 0 4 28 2 62 l-3 62 -47 12 c-77 19 -169 24 -228 10z"/>
<path d="M825 1147 c-98 -33 -162 -93 -191 -179 -21 -64 -16 -178 11 -232 26
-53 79 -104 134 -129 65 -29 207 -35 299 -13 l68 17 22 65 c19 59 19 65 4 59
-195 -81 -327 -48 -340 85 l-5 50 177 0 176 0 0 38 c-1 86 -56 176 -132 217
-60 33 -160 43 -223 22z m129 -108 c15 -12 26 -30 26 -45 0 -23 -2 -24 -75
-24 -86 0 -95 11 -46 61 35 34 59 36 95 8z"/>
<path d="M2062 1141 c-70 -24 -118 -65 -156 -131 -28 -50 -31 -63 -31 -145 0
-73 4 -98 22 -131 31 -58 102 -117 164 -137 66 -22 190 -22 274 -1 l65 16 18
62 c11 33 18 62 17 64 -1 1 -24 -7 -51 -19 -69 -30 -178 -36 -224 -12 -46 24
-80 76 -80 124 l0 39 175 0 175 0 0 38 c0 181 -183 297 -368 233z m132 -92
c20 -9 46 -52 46 -75 0 -2 -36 -4 -81 -4 -79 0 -80 0 -74 23 8 26 50 67 70 67
8 0 25 -5 39 -11z"/>
<path d="M2737 1149 c-108 -25 -196 -103 -224 -198 -20 -69 -13 -162 15 -218
30 -57 105 -120 165 -138 67 -20 189 -19 251 3 45 15 51 21 64 62 7 25 16 52
19 60 3 9 10 0 18 -25 25 -73 97 -115 197 -115 47 0 48 1 72 49 l25 48 -32 10
c-39 11 -63 49 -53 86 5 23 76 77 99 77 4 0 7 -24 7 -52 0 -140 72 -218 200
-218 43 0 53 6 74 47 22 43 20 52 -9 59 -47 12 -55 37 -55 179 0 71 -5 146
-10 167 -28 98 -174 152 -317 117 -42 -11 -47 -16 -69 -66 -13 -29 -24 -55
-24 -57 0 -2 21 2 47 10 96 29 163 14 163 -36 0 -40 -24 -54 -140 -81 -85 -19
-99 -26 -137 -64 -34 -34 -43 -49 -43 -77 0 -33 -4 -37 -49 -56 -109 -47 -194
-32 -240 42 -51 83 -34 226 33 267 37 23 70 24 126 4 23 -8 44 -15 46 -15 2 0
4 29 4 64 l0 63 -46 7 c-61 8 -130 6 -177 -5z"/>
<path d="M1323 1143 c-51 -2 -93 -5 -93 -7 0 -2 7 -17 15 -32 22 -42 22 -436
0 -478 -8 -15 -15 -30 -15 -32 0 -2 59 -4 130 -4 l131 0 -16 30 c-20 38 -22
342 -2 379 28 56 89 53 113 -4 21 -50 20 -335 -1 -375 l-16 -30 131 0 c71 0
130 2 130 4 0 2 -7 17 -15 32 -11 22 -15 68 -15 199 -1 223 -16 265 -105 306
-55 26 -119 24 -182 -5 l-52 -25 -3 22 c-3 25 -3 25 -135 20z"/>
<path d="M455 378 c-80 -29 -128 -97 -128 -183 0 -175 204 -256 325 -128 35
36 48 73 48 132 0 74 -34 130 -100 164 -56 28 -95 32 -145 15z m133 -48 c47
-29 72 -76 72 -135 0 -182 -243 -214 -289 -37 -13 48 -3 102 27 139 42 53 131
69 190 33z"/>
<path d="M2170 383 c-57 -21 -86 -42 -111 -82 -60 -94 -26 -231 67 -276 58
-28 132 -24 189 9 36 22 44 30 35 41 -9 11 -19 9 -53 -11 -77 -44 -162 -24
-208 48 -16 26 -19 46 -17 96 4 56 8 66 40 99 48 47 116 57 179 24 31 -17 45
-19 53 -11 32 33 -113 85 -174 63z"/>
<path d="M3445 375 c-52 -18 -100 -74 -115 -134 -42 -176 152 -305 298 -198
25 19 29 27 20 35 -10 8 -24 4 -53 -14 -99 -59 -212 -4 -231 113 -5 32 -1 52
16 87 40 83 129 110 211 64 31 -17 42 -19 52 -9 23 23 -67 72 -133 71 -14 -1
-43 -7 -65 -15z"/>
<path d="M0 195 c0 -178 1 -185 20 -185 18 0 20 7 20 65 l0 65 56 0 c116 0
184 44 184 118 -1 90 -50 122 -187 122 l-93 0 0 -185z m215 125 c34 -32 34
-82 0 -115 -21 -22 -33 -25 -100 -25 l-75 0 0 78 c0 43 3 82 8 86 4 5 38 6 75
3 53 -3 73 -9 92 -27z"/>
<path d="M780 195 l0 -185 125 0 c95 0 124 3 123 13 -2 8 -35 14 -108 17
l-105 5 -3 168 c-2 139 -5 167 -17 167 -13 0 -15 -29 -15 -185z"/>
<path d="M1055 271 l75 -109 0 -76 c0 -69 2 -76 20 -76 18 0 20 7 20 71 l0 72
68 101 c90 133 87 126 63 126 -15 0 -38 -26 -81 -90 -33 -49 -64 -90 -68 -90
-4 0 -33 41 -66 90 -46 71 -64 90 -82 90 -22 0 -17 -9 51 -109z"/>
<path d="M1350 365 c0 -12 14 -15 65 -15 l65 0 0 -170 c0 -163 1 -170 20 -170
19 0 20 7 20 170 l0 170 60 0 c47 0 60 3 60 15 0 13 -23 15 -145 15 -122 0
-145 -2 -145 -15z"/>
<path d="M1705 195 l0 -185 133 0 c109 0 132 3 132 15 0 12 -22 15 -112 17
l-113 3 -3 68 -3 67 106 0 c85 0 105 3 105 15 0 11 -20 15 -102 17 l-103 3 0
65 0 65 113 3 c90 2 112 5 112 17 0 12 -23 15 -132 15 l-133 0 0 -185z"/>
<path d="M2420 195 c0 -170 1 -185 18 -185 15 0 17 11 17 82 l0 83 113 3 112
3 0 -86 c0 -69 3 -85 15 -85 13 0 15 27 15 185 0 155 -2 185 -15 185 -11 0
-15 -18 -17 -82 l-3 -83 -110 0 -110 0 0 83 c0 71 -2 82 -17 82 -17 0 -18 -15
-18 -185z"/>
<path d="M2800 195 c0 -178 1 -185 20 -185 19 0 20 7 20 151 0 123 2 149 13
141 7 -6 62 -74 122 -151 67 -86 117 -141 127 -141 17 0 18 15 18 185 0 178
-1 185 -20 185 -18 0 -20 -8 -22 -149 l-3 -148 -115 148 c-86 111 -121 148
-137 148 l-23 1 0 -185z"/>
<path d="M3210 195 c0 -178 1 -185 20 -185 19 0 20 7 20 185 0 178 -1 185 -20
185 -19 0 -20 -7 -20 -185z"/>
</g>
</svg>
